<svg width="30" height="30" viewBox="0 0 30 30" fill="none" xmlns="http://www.w3.org/2000/svg">
<g id="glasses-square-yellow-saturated">
<path id="Vector" d="M16.5 8.03125H9.9375V9.125H16.5V8.03125Z" fill="#FFEF16"/>
<path id="Vector_2" d="M24.1562 8.03125H17.5938V9.125H24.1562V8.03125Z" fill="#FFEF16"/>
<path id="Vector_3" d="M11.0312 9.125H9.9375V10.2188H11.0312V9.125Z" fill="#FFEF16"/>
<path id="Vector_4" d="M13.2188 9.125H11.0312V10.2188H13.2188V9.125Z" fill="#F9EFE4"/>
<path id="Vector_5" d="M15.4062 9.125H13.2188V10.2188H15.4062V9.125Z" fill="black"/>
<path id="Vector_6" d="M16.5 9.125H15.4062V10.2188H16.5V9.125Z" fill="#FFEF16"/>
<path id="Vector_7" d="M18.6875 9.125H17.5938V10.2188H18.6875V9.125Z" fill="#FFEF16"/>
<path id="Vector_8" d="M20.875 9.125H18.6875V10.2188H20.875V9.125Z" fill="#F9EFE4"/>
<path id="Vector_9" d="M23.0625 9.125H20.875V10.2188H23.0625V9.125Z" fill="black"/>
<path id="Vector_10" d="M24.1562 9.125H23.0625V10.2188H24.1562V9.125Z" fill="#FFEF16"/>
<path id="Vector_11" d="M11.0312 10.2188H6.65625V11.3125H11.0312V10.2188Z" fill="#FFEF16"/>
<path id="Vector_12" d="M13.2188 10.2188H11.0312V11.3125H13.2188V10.2188Z" fill="#F9EFE4"/>
<path id="Vector_13" d="M15.4062 10.2188H13.2188V11.3125H15.4062V10.2188Z" fill="black"/>
<path id="Vector_14" d="M18.6875 10.2188H15.4062V11.3125H18.6875V10.2188Z" fill="#FFEF16"/>
<path id="Vector_15" d="M20.875 10.2188H18.6875V11.3125H20.875V10.2188Z" fill="#F9EFE4"/>
<path id="Vector_16" d="M23.0625 10.2188H20.875V11.3125H23.0625V10.2188Z" fill="black"/>
<path id="Vector_17" d="M24.1562 10.2188H23.0625V11.3125H24.1562V10.2188Z" fill="#FFEF16"/>
<path id="Vector_18" d="M7.75 11.3125H6.65625V12.4062H7.75V11.3125Z" fill="#FFEF16"/>
<path id="Vector_19" d="M11.0312 11.3125H9.9375V12.4062H11.0312V11.3125Z" fill="#FFEF16"/>
<path id="Vector_20" d="M13.2188 11.3125H11.0312V12.4062H13.2188V11.3125Z" fill="#F9EFE4"/>
<path id="Vector_21" d="M15.4062 11.3125H13.2188V12.4062H15.4062V11.3125Z" fill="black"/>
<path id="Vector_22" d="M16.5 11.3125H15.4062V12.4062H16.5V11.3125Z" fill="#FFEF16"/>
<path id="Vector_23" d="M18.6875 11.3125H17.5938V12.4062H18.6875V11.3125Z" fill="#FFEF16"/>
<path id="Vector_24" d="M20.875 11.3125H18.6875V12.4062H20.875V11.3125Z" fill="#F9EFE4"/>
<path id="Vector_25" d="M23.0625 11.3125H20.875V12.4062H23.0625V11.3125Z" fill="black"/>
<path id="Vector_26" d="M24.1562 11.3125H23.0625V12.4062H24.1562V11.3125Z" fill="#FFEF16"/>
<path id="Vector_27" d="M7.75 12.4062H6.65625V13.5H7.75V12.4062Z" fill="#FFEF16"/>
<path id="Vector_28" d="M11.0312 12.4062H9.9375V13.5H11.0312V12.4062Z" fill="#FFEF16"/>
<path id="Vector_29" d="M13.2188 12.4062H11.0312V13.5H13.2188V12.4062Z" fill="#F9EFE4"/>
<path id="Vector_30" d="M15.4062 12.4062H13.2188V13.5H15.4062V12.4062Z" fill="black"/>
<path id="Vector_31" d="M16.5 12.4062H15.4062V13.5H16.5V12.4062Z" fill="#FFEF16"/>
<path id="Vector_32" d="M18.6875 12.4062H17.5938V13.5H18.6875V12.4062Z" fill="#FFEF16"/>
<path id="Vector_33" d="M20.875 12.4062H18.6875V13.5H20.875V12.4062Z" fill="#F9EFE4"/>
<path id="Vector_34" d="M23.0625 12.4062H20.875V13.5H23.0625V12.4062Z" fill="black"/>
<path id="Vector_35" d="M24.1562 12.4062H23.0625V13.5H24.1562V12.4062Z" fill="#FFEF16"/>
<path id="Vector_36" d="M16.5 13.5H9.9375V14.5938H16.5V13.5Z" fill="#FFEF16"/>
<path id="Vector_37" d="M24.1562 13.5H17.5938V14.5938H24.1562V13.5Z" fill="#FFEF16"/>
</g>
</svg>
