<svg width="22" height="20" viewBox="0 0 22 20" fill="none" xmlns="http://www.w3.org/2000/svg">
<path d="M13.0625 2.375H8.9375V3H13.0625V2.375Z" fill="#D6C3BE"/>
<path d="M8.9375 3H7.5625V3.625H8.9375V3Z" fill="#D6C3BE"/>
<path d="M13.0625 3H8.9375V3.625H13.0625V3Z" fill="#70E890"/>
<path d="M14.4375 3H13.0625V3.625H14.4375V3Z" fill="#D6C3BE"/>
<path d="M7.5625 3.625H6.1875V4.25H7.5625V3.625Z" fill="#D6C3BE"/>
<path d="M14.4375 3.625H7.5625V4.25H14.4375V3.625Z" fill="#70E890"/>
<path d="M15.8125 3.625H14.4375V4.25H15.8125V3.625Z" fill="#D6C3BE"/>
<path d="M6.1875 4.25H5.5V4.875H6.1875V4.25Z" fill="#D6C3BE"/>
<path d="M15.8125 4.25H6.1875V4.875H15.8125V4.25Z" fill="#70E890"/>
<path d="M16.5 4.25H15.8125V4.875H16.5V4.25Z" fill="#D6C3BE"/>
<path d="M5.5 4.875H4.8125V5.5H5.5V4.875Z" fill="#D6C3BE"/>
<path d="M6.1875 4.875H5.5V5.5H6.1875V4.875Z" fill="#C4DA53"/>
<path d="M16.5 4.875H6.1875V5.5H16.5V4.875Z" fill="#70E890"/>
<path d="M17.1875 4.875H16.5V5.5H17.1875V4.875Z" fill="#D6C3BE"/>
<path d="M5.5 5.5H4.8125V6.125H5.5V5.5Z" fill="#D6C3BE"/>
<path d="M6.875 5.5H5.5V6.125H6.875V5.5Z" fill="#C4DA53"/>
<path d="M16.5 5.5H6.875V6.125H16.5V5.5Z" fill="#70E890"/>
<path d="M17.1875 5.5H16.5V6.125H17.1875V5.5Z" fill="#D6C3BE"/>
<path d="M4.8125 6.125H4.125V6.75H4.8125V6.125Z" fill="#D6C3BE"/>
<path d="M8.25 6.125H4.8125V6.75H8.25V6.125Z" fill="#C4DA53"/>
<path d="M15.8125 6.125H8.25V6.75H15.8125V6.125Z" fill="#70E890"/>
<path d="M17.1875 6.125H15.8125V6.75H17.1875V6.125Z" fill="#2B83F6"/>
<path d="M17.875 6.125H17.1875V6.75H17.875V6.125Z" fill="#D6C3BE"/>
<path d="M4.8125 6.75H4.125V7.375H4.8125V6.75Z" fill="#D6C3BE"/>
<path d="M8.9375 6.75H4.8125V7.375H8.9375V6.75Z" fill="#C4DA53"/>
<path d="M9.625 6.75H8.9375V7.375H9.625V6.75Z" fill="#70E890"/>
<path d="M12.375 6.75H9.625V7.375H12.375V6.75Z" fill="#5A423F"/>
<path d="M14.4375 6.75H12.375V7.375H14.4375V6.75Z" fill="#70E890"/>
<path d="M17.1875 6.75H14.4375V7.375H17.1875V6.75Z" fill="#2B83F6"/>
<path d="M17.875 6.75H17.1875V7.375H17.875V6.75Z" fill="#D6C3BE"/>
<path d="M4.125 7.375H3.4375V8H4.125V7.375Z" fill="#D6C3BE"/>
<path d="M6.875 7.375H4.125V8H6.875V7.375Z" fill="#FF638D"/>
<path d="M8.9375 7.375H6.875V8H8.9375V7.375Z" fill="#C4DA53"/>
<path d="M9.625 7.375H8.9375V8H9.625V7.375Z" fill="#5A423F"/>
<path d="M12.375 7.375H9.625V8H12.375V7.375Z" fill="#D6C3BE"/>
<path d="M13.0625 7.375H12.375V8H13.0625V7.375Z" fill="#5A423F"/>
<path d="M17.875 7.375H13.0625V8H17.875V7.375Z" fill="#2B83F6"/>
<path d="M18.5625 7.375H17.875V8H18.5625V7.375Z" fill="#D6C3BE"/>
<path d="M4.125 8H3.4375V8.625H4.125V8Z" fill="#D6C3BE"/>
<path d="M8.25 8H4.125V8.625H8.25V8Z" fill="#FF638D"/>
<path d="M8.9375 8H8.25V8.625H8.9375V8Z" fill="#5A423F"/>
<path d="M13.0625 8H8.9375V8.625H13.0625V8Z" fill="#D6C3BE"/>
<path d="M13.75 8H13.0625V8.625H13.75V8Z" fill="#5A423F"/>
<path d="M17.875 8H13.75V8.625H17.875V8Z" fill="#2B83F6"/>
<path d="M18.5625 8H17.875V8.625H18.5625V8Z" fill="#D6C3BE"/>
<path d="M4.125 8.625H3.4375V9.25H4.125V8.625Z" fill="#D6C3BE"/>
<path d="M8.25 8.625H4.125V9.25H8.25V8.625Z" fill="#FF638D"/>
<path d="M8.9375 8.625H8.25V9.25H8.9375V8.625Z" fill="#5A423F"/>
<path d="M10.3125 8.625H8.9375V9.25H10.3125V8.625Z" fill="#D6C3BE"/>
<path d="M13.0625 8.625H11.6875V9.25H13.0625V8.625Z" fill="#D6C3BE"/>
<path d="M13.75 8.625H13.0625V9.25H13.75V8.625Z" fill="#5A423F"/>
<path d="M17.875 8.625H13.75V9.25H17.875V8.625Z" fill="#2B83F6"/>
<path d="M18.5625 8.625H17.875V9.25H18.5625V8.625Z" fill="#D6C3BE"/>
<path d="M4.125 9.25H3.4375V9.875H4.125V9.25Z" fill="#D6C3BE"/>
<path d="M8.25 9.25H4.125V9.875H8.25V9.25Z" fill="#FF638D"/>
<path d="M8.9375 9.25H8.25V9.875H8.9375V9.25Z" fill="#5A423F"/>
<path d="M10.3125 9.25H8.9375V9.875H10.3125V9.25Z" fill="#D6C3BE"/>
<path d="M13.0625 9.25H11.6875V9.875H13.0625V9.25Z" fill="#D6C3BE"/>
<path d="M13.75 9.25H13.0625V9.875H13.75V9.25Z" fill="#5A423F"/>
<path d="M17.875 9.25H13.75V9.875H17.875V9.25Z" fill="#CC0595"/>
<path d="M18.5625 9.25H17.875V9.875H18.5625V9.25Z" fill="#D6C3BE"/>
<path d="M4.125 9.875H3.4375V10.5H4.125V9.875Z" fill="#D6C3BE"/>
<path d="M8.25 9.875H4.125V10.5H8.25V9.875Z" fill="#FFC110"/>
<path d="M8.9375 9.875H8.25V10.5H8.9375V9.875Z" fill="#5A423F"/>
<path d="M13.0625 9.875H8.9375V10.5H13.0625V9.875Z" fill="#D6C3BE"/>
<path d="M13.75 9.875H13.0625V10.5H13.75V9.875Z" fill="#5A423F"/>
<path d="M17.875 9.875H13.75V10.5H17.875V9.875Z" fill="#CC0595"/>
<path d="M18.5625 9.875H17.875V10.5H18.5625V9.875Z" fill="#D6C3BE"/>
<path d="M4.125 10.5H3.4375V11.125H4.125V10.5Z" fill="#D6C3BE"/>
<path d="M8.9375 10.5H4.125V11.125H8.9375V10.5Z" fill="#FFC110"/>
<path d="M9.625 10.5H8.9375V11.125H9.625V10.5Z" fill="#5A423F"/>
<path d="M12.375 10.5H9.625V11.125H12.375V10.5Z" fill="#D6C3BE"/>
<path d="M13.0625 10.5H12.375V11.125H13.0625V10.5Z" fill="#5A423F"/>
<path d="M14.4375 10.5H13.0625V11.125H14.4375V10.5Z" fill="#AB36BE"/>
<path d="M17.875 10.5H14.4375V11.125H17.875V10.5Z" fill="#CC0595"/>
<path d="M18.5625 10.5H17.875V11.125H18.5625V10.5Z" fill="#D6C3BE"/>
<path d="M4.8125 11.125H4.125V11.75H4.8125V11.125Z" fill="#D6C3BE"/>
<path d="M7.5625 11.125H4.8125V11.75H7.5625V11.125Z" fill="#FFC110"/>
<path d="M9.625 11.125H7.5625V11.75H9.625V11.125Z" fill="#70E890"/>
<path d="M12.375 11.125H9.625V11.75H12.375V11.125Z" fill="#5A423F"/>
<path d="M13.0625 11.125H12.375V11.75H13.0625V11.125Z" fill="#70E890"/>
<path d="M15.8125 11.125H13.0625V11.75H15.8125V11.125Z" fill="#AB36BE"/>
<path d="M17.1875 11.125H15.8125V11.75H17.1875V11.125Z" fill="#CC0595"/>
<path d="M17.875 11.125H17.1875V11.75H17.875V11.125Z" fill="#D6C3BE"/>
<path d="M4.8125 11.75H4.125V12.375H4.8125V11.75Z" fill="#D6C3BE"/>
<path d="M6.1875 11.75H4.8125V12.375H6.1875V11.75Z" fill="#FFC110"/>
<path d="M13.75 11.75H6.1875V12.375H13.75V11.75Z" fill="#70E890"/>
<path d="M17.1875 11.75H13.75V12.375H17.1875V11.75Z" fill="#AB36BE"/>
<path d="M17.875 11.75H17.1875V12.375H17.875V11.75Z" fill="#D6C3BE"/>
<path d="M5.5 12.375H4.8125V13H5.5V12.375Z" fill="#D6C3BE"/>
<path d="M14.4375 12.375H5.5V13H14.4375V12.375Z" fill="#70E890"/>
<path d="M16.5 12.375H14.4375V13H16.5V12.375Z" fill="#AB36BE"/>
<path d="M17.1875 12.375H16.5V13H17.1875V12.375Z" fill="#D6C3BE"/>
<path d="M5.5 13H4.8125V13.625H5.5V13Z" fill="#D6C3BE"/>
<path d="M15.8125 13H5.5V13.625H15.8125V13Z" fill="#70E890"/>
<path d="M16.5 13H15.8125V13.625H16.5V13Z" fill="#AB36BE"/>
<path d="M17.1875 13H16.5V13.625H17.1875V13Z" fill="#D6C3BE"/>
<path d="M6.1875 13.625H5.5V14.25H6.1875V13.625Z" fill="#D6C3BE"/>
<path d="M15.8125 13.625H6.1875V14.25H15.8125V13.625Z" fill="#70E890"/>
<path d="M16.5 13.625H15.8125V14.25H16.5V13.625Z" fill="#D6C3BE"/>
<path d="M7.5625 14.25H6.1875V14.875H7.5625V14.25Z" fill="#D6C3BE"/>
<path d="M14.4375 14.25H7.5625V14.875H14.4375V14.25Z" fill="#70E890"/>
<path d="M15.8125 14.25H14.4375V14.875H15.8125V14.25Z" fill="#D6C3BE"/>
<path d="M8.9375 14.875H7.5625V15.5H8.9375V14.875Z" fill="#D6C3BE"/>
<path d="M13.0625 14.875H8.9375V15.5H13.0625V14.875Z" fill="#70E890"/>
<path d="M14.4375 14.875H13.0625V15.5H14.4375V14.875Z" fill="#D6C3BE"/>
<path d="M13.0625 15.5H8.9375V16.125H13.0625V15.5Z" fill="#D6C3BE"/>
</svg>
