<svg width="25" height="26" viewBox="0 0 25 26" fill="none" xmlns="http://www.w3.org/2000/svg">
<g id="head-diamond-blue">
<path id="Vector" d="M10.1562 4.40625H8.59375V5.1875H10.1562V4.40625Z" fill="#254EFB"/>
<path id="Vector_2" d="M10.9375 4.40625H10.1562V5.1875H10.9375V4.40625Z" fill="#63A0F9"/>
<path id="Vector_3" d="M14.0625 4.40625H10.9375V5.1875H14.0625V4.40625Z" fill="#254EFB"/>
<path id="Vector_4" d="M14.8438 4.40625H14.0625V5.1875H14.8438V4.40625Z" fill="#63A0F9"/>
<path id="Vector_5" d="M16.4062 4.40625H14.8438V5.1875H16.4062V4.40625Z" fill="#254EFB"/>
<path id="Vector_6" d="M10.1562 5.1875H7.8125V5.96875H10.1562V5.1875Z" fill="#254EFB"/>
<path id="Vector_7" d="M10.9375 5.1875H10.1562V5.96875H10.9375V5.1875Z" fill="#63A0F9"/>
<path id="Vector_8" d="M14.0625 5.1875H10.9375V5.96875H14.0625V5.1875Z" fill="#254EFB"/>
<path id="Vector_9" d="M14.8438 5.1875H14.0625V5.96875H14.8438V5.1875Z" fill="#63A0F9"/>
<path id="Vector_10" d="M17.1875 5.1875H14.8438V5.96875H17.1875V5.1875Z" fill="#254EFB"/>
<path id="Vector_11" d="M9.375 5.96875H7.03125V6.75H9.375V5.96875Z" fill="#254EFB"/>
<path id="Vector_12" d="M10.1562 5.96875H9.375V6.75H10.1562V5.96875Z" fill="#63A0F9"/>
<path id="Vector_13" d="M14.8438 5.96875H10.1562V6.75H14.8438V5.96875Z" fill="#254EFB"/>
<path id="Vector_14" d="M15.625 5.96875H14.8438V6.75H15.625V5.96875Z" fill="#63A0F9"/>
<path id="Vector_15" d="M17.9688 5.96875H15.625V6.75H17.9688V5.96875Z" fill="#254EFB"/>
<path id="Vector_16" d="M9.375 6.75H6.25V7.53125H9.375V6.75Z" fill="#254EFB"/>
<path id="Vector_17" d="M10.1562 6.75H9.375V7.53125H10.1562V6.75Z" fill="#63A0F9"/>
<path id="Vector_18" d="M14.8438 6.75H10.1562V7.53125H14.8438V6.75Z" fill="#254EFB"/>
<path id="Vector_19" d="M15.625 6.75H14.8438V7.53125H15.625V6.75Z" fill="#63A0F9"/>
<path id="Vector_20" d="M18.75 6.75H15.625V7.53125H18.75V6.75Z" fill="#254EFB"/>
<path id="Vector_21" d="M8.59375 7.53125H5.46875V8.3125H8.59375V7.53125Z" fill="#254EFB"/>
<path id="Vector_22" d="M9.375 7.53125H8.59375V8.3125H9.375V7.53125Z" fill="#F9EFE4"/>
<path id="Vector_23" d="M15.625 7.53125H9.375V8.3125H15.625V7.53125Z" fill="#254EFB"/>
<path id="Vector_24" d="M16.4062 7.53125H15.625V8.3125H16.4062V7.53125Z" fill="#63A0F9"/>
<path id="Vector_25" d="M19.5312 7.53125H16.4062V8.3125H19.5312V7.53125Z" fill="#254EFB"/>
<path id="Vector_26" d="M6.25 8.3125H4.6875V9.09375H6.25V8.3125Z" fill="#63A0F9"/>
<path id="Vector_27" d="M7.03125 8.3125H6.25V9.09375H7.03125V8.3125Z" fill="#F9EFE4"/>
<path id="Vector_28" d="M7.8125 8.3125H7.03125V9.09375H7.8125V8.3125Z" fill="#63A0F9"/>
<path id="Vector_29" d="M10.1562 8.3125H7.8125V9.09375H10.1562V8.3125Z" fill="#F9EFE4"/>
<path id="Vector_30" d="M10.9375 8.3125H10.1562V9.09375H10.9375V8.3125Z" fill="#63A0F9"/>
<path id="Vector_31" d="M11.7188 8.3125H10.9375V9.09375H11.7188V8.3125Z" fill="#F9EFE4"/>
<path id="Vector_32" d="M20.3125 8.3125H11.7188V9.09375H20.3125V8.3125Z" fill="#63A0F9"/>
<path id="Vector_33" d="M8.59375 9.09375H4.6875V9.875H8.59375V9.09375Z" fill="#254EFB"/>
<path id="Vector_34" d="M9.375 9.09375H8.59375V9.875H9.375V9.09375Z" fill="#F9EFE4"/>
<path id="Vector_35" d="M15.625 9.09375H9.375V9.875H15.625V9.09375Z" fill="#254EFB"/>
<path id="Vector_36" d="M16.4062 9.09375H15.625V9.875H16.4062V9.09375Z" fill="#63A0F9"/>
<path id="Vector_37" d="M20.3125 9.09375H16.4062V9.875H20.3125V9.09375Z" fill="#254EFB"/>
<path id="Vector_38" d="M8.59375 9.875H4.6875V10.6562H8.59375V9.875Z" fill="#254EFB"/>
<path id="Vector_39" d="M9.375 9.875H8.59375V10.6562H9.375V9.875Z" fill="#63A0F9"/>
<path id="Vector_40" d="M15.625 9.875H9.375V10.6562H15.625V9.875Z" fill="#254EFB"/>
<path id="Vector_41" d="M16.4062 9.875H15.625V10.6562H16.4062V9.875Z" fill="#63A0F9"/>
<path id="Vector_42" d="M20.3125 9.875H16.4062V10.6562H20.3125V9.875Z" fill="#254EFB"/>
<path id="Vector_43" d="M8.59375 10.6562H4.6875V11.4375H8.59375V10.6562Z" fill="#254EFB"/>
<path id="Vector_44" d="M9.375 10.6562H8.59375V11.4375H9.375V10.6562Z" fill="#63A0F9"/>
<path id="Vector_45" d="M15.625 10.6562H9.375V11.4375H15.625V10.6562Z" fill="#254EFB"/>
<path id="Vector_46" d="M16.4062 10.6562H15.625V11.4375H16.4062V10.6562Z" fill="#63A0F9"/>
<path id="Vector_47" d="M20.3125 10.6562H16.4062V11.4375H20.3125V10.6562Z" fill="#254EFB"/>
<path id="Vector_48" d="M8.59375 11.4375H4.6875V12.2188H8.59375V11.4375Z" fill="#254EFB"/>
<path id="Vector_49" d="M9.375 11.4375H8.59375V12.2188H9.375V11.4375Z" fill="#63A0F9"/>
<path id="Vector_50" d="M15.625 11.4375H9.375V12.2188H15.625V11.4375Z" fill="#254EFB"/>
<path id="Vector_51" d="M16.4062 11.4375H15.625V12.2188H16.4062V11.4375Z" fill="#63A0F9"/>
<path id="Vector_52" d="M20.3125 11.4375H16.4062V12.2188H20.3125V11.4375Z" fill="#254EFB"/>
<path id="Vector_53" d="M20.3125 12.2188H4.6875V13H20.3125V12.2188Z" fill="#63A0F9"/>
<path id="Vector_54" d="M9.375 13H5.46875V13.7812H9.375V13Z" fill="#254EFB"/>
<path id="Vector_55" d="M10.1562 13H9.375V13.7812H10.1562V13Z" fill="#63A0F9"/>
<path id="Vector_56" d="M14.8438 13H10.1562V13.7812H14.8438V13Z" fill="#254EFB"/>
<path id="Vector_57" d="M15.625 13H14.8438V13.7812H15.625V13Z" fill="#63A0F9"/>
<path id="Vector_58" d="M19.5312 13H15.625V13.7812H19.5312V13Z" fill="#254EFB"/>
<path id="Vector_59" d="M9.375 13.7812H6.25V14.5625H9.375V13.7812Z" fill="#254EFB"/>
<path id="Vector_60" d="M10.1562 13.7812H9.375V14.5625H10.1562V13.7812Z" fill="#63A0F9"/>
<path id="Vector_61" d="M14.8438 13.7812H10.1562V14.5625H14.8438V13.7812Z" fill="#254EFB"/>
<path id="Vector_62" d="M15.625 13.7812H14.8438V14.5625H15.625V13.7812Z" fill="#63A0F9"/>
<path id="Vector_63" d="M18.75 13.7812H15.625V14.5625H18.75V13.7812Z" fill="#254EFB"/>
<path id="Vector_64" d="M10.1562 14.5625H7.03125V15.3438H10.1562V14.5625Z" fill="#254EFB"/>
<path id="Vector_65" d="M10.9375 14.5625H10.1562V15.3438H10.9375V14.5625Z" fill="#63A0F9"/>
<path id="Vector_66" d="M14.0625 14.5625H10.9375V15.3438H14.0625V14.5625Z" fill="#254EFB"/>
<path id="Vector_67" d="M14.8438 14.5625H14.0625V15.3438H14.8438V14.5625Z" fill="#63A0F9"/>
<path id="Vector_68" d="M17.9688 14.5625H14.8438V15.3438H17.9688V14.5625Z" fill="#254EFB"/>
<path id="Vector_69" d="M10.1562 15.3438H7.8125V16.125H10.1562V15.3438Z" fill="#254EFB"/>
<path id="Vector_70" d="M10.9375 15.3438H10.1562V16.125H10.9375V15.3438Z" fill="#63A0F9"/>
<path id="Vector_71" d="M14.0625 15.3438H10.9375V16.125H14.0625V15.3438Z" fill="#254EFB"/>
<path id="Vector_72" d="M14.8438 15.3438H14.0625V16.125H14.8438V15.3438Z" fill="#63A0F9"/>
<path id="Vector_73" d="M17.1875 15.3438H14.8438V16.125H17.1875V15.3438Z" fill="#254EFB"/>
<path id="Vector_74" d="M10.1562 16.125H8.59375V16.9062H10.1562V16.125Z" fill="#254EFB"/>
<path id="Vector_75" d="M10.9375 16.125H10.1562V16.9062H10.9375V16.125Z" fill="#63A0F9"/>
<path id="Vector_76" d="M14.0625 16.125H10.9375V16.9062H14.0625V16.125Z" fill="#254EFB"/>
<path id="Vector_77" d="M14.8438 16.125H14.0625V16.9062H14.8438V16.125Z" fill="#63A0F9"/>
<path id="Vector_78" d="M16.4062 16.125H14.8438V16.9062H16.4062V16.125Z" fill="#254EFB"/>
<path id="Vector_79" d="M10.9375 16.9062H9.375V17.6875H10.9375V16.9062Z" fill="#254EFB"/>
<path id="Vector_80" d="M11.7188 16.9062H10.9375V17.6875H11.7188V16.9062Z" fill="#63A0F9"/>
<path id="Vector_81" d="M13.2812 16.9062H11.7188V17.6875H13.2812V16.9062Z" fill="#254EFB"/>
<path id="Vector_82" d="M14.0625 16.9062H13.2812V17.6875H14.0625V16.9062Z" fill="#63A0F9"/>
<path id="Vector_83" d="M15.625 16.9062H14.0625V17.6875H15.625V16.9062Z" fill="#254EFB"/>
<path id="Vector_84" d="M10.9375 17.6875H10.1562V18.4688H10.9375V17.6875Z" fill="#254EFB"/>
<path id="Vector_85" d="M11.7188 17.6875H10.9375V18.4688H11.7188V17.6875Z" fill="#63A0F9"/>
<path id="Vector_86" d="M13.2812 17.6875H11.7188V18.4688H13.2812V17.6875Z" fill="#254EFB"/>
<path id="Vector_87" d="M14.0625 17.6875H13.2812V18.4688H14.0625V17.6875Z" fill="#63A0F9"/>
<path id="Vector_88" d="M14.8438 17.6875H14.0625V18.4688H14.8438V17.6875Z" fill="#254EFB"/>
<path id="Vector_89" d="M11.7188 18.4688H10.9375V19.25H11.7188V18.4688Z" fill="#63A0F9"/>
<path id="Vector_90" d="M13.2812 18.4688H11.7188V19.25H13.2812V18.4688Z" fill="#254EFB"/>
<path id="Vector_91" d="M14.0625 18.4688H13.2812V19.25H14.0625V18.4688Z" fill="#63A0F9"/>
<path id="Vector_92" d="M13.2812 19.25H11.7188V20.0312H13.2812V19.25Z" fill="#254EFB"/>
</g>
</svg>
